CoelacanthGross.sfdir
StartChar: B
Encoding: 66 66 1250
Width: 643
Flags: HMW
AnchorPoint: "Bottom" 308 -15 basechar 0
AnchorPoint: "Top" 275 699 basechar 0
LayerCount: 2
Fore
SplineSet
310 380 m 0
 357.216796875 388.64453125 401 431 401 482 c 3
 401 577.644659745 352.514648438 635 310 635 c 3
 306.016601562 635 294.790010785 636.315500397 289 634 c 0
 284.51171875 632.205078125 279.282716146 616.613259306 278 588 c 0
 274.727539063 514.652680173 272 378 272 378 c 1
 293 378 306.149395227 379.295024748 310 380 c 0
290 342 m 0
 271 342 l 1
 272 257.169921875 271.985233258 174.101557836 274 123 c 0
 275.413085938 87.1591796875 278.749004252 49.3826252881 302 47 c 0
 307.565429688 46.4296875 333.234375 46 348 46 c 3
 413.059570312 46 450 89.5556640625 450 174 c 3
 450 256.526367188 393.831054688 342 290 342 c 0
36 39 m 1
 61.1005859375 42.3406878972 127 57.9873377913 127 88 c 0
 127 92.54296875 133 181.59375 133 287 c 3
 133 444.978948568 127.088672384 562.713004915 121 588 c 0
 119.065429688 594.673177083 109.424107735 616.378869387 89 628 c 0
 81.9130859375 632.838867188 49.947265625 646.15625 36 651 c 1
 42 690 l 1
 52.666015625 690 97 681 154 681 c 3
 211 681 270.202148438 691 324 691 c 3
 497.188476562 691 543 578.954101562 543 521 c 3
 543 451.351174208 495.586914062 408.097377791 391 368.735351562 c 1
 503.006835938 353.813476562 606 264.686523438 606 180 c 3
 606 68.3994140625 498.137695312 -6 330 -6 c 3
 272.01953125 -6 219 0 158 0 c 3
 95 0 47.44140625 -4 40 -4 c 1
 36 39 l 1
EndSplineSet
Position2: "cpsp-1" dx=0 dy=0 dh=50 dv=100
Substitution2: "c2pc-1" b.pcap
Substitution2: "c2sc-1" b.smcp
EndChar
StartChar: D
Encoding: 68 68 1260
Width: 834
Flags: HW
AnchorPoint: "Bottom" 382 -15 basechar 0
AnchorPoint: "Top" 382 699 basechar 0
LayerCount: 2
Fore
SplineSet
370 48 m 1
 548 48 627 163.220007588 627 334 c 3
 627 544.001953125 480.349609375 644 337 644 c 3
 334.74609375 644 329.448242188 642.745117188 325.5 641.900390625 c 0
 299.815429688 636.407226562 287 613 284.5 585.900390625 c 1
 278.5 476.182617188 280.788085938 350.090820312 280.788085938 236.322265625 c 3
 280.788085938 196.981779909 282.891601562 155.582841156 287 114 c 0
 289.071289062 96.119140625 309 66 331 55 c 0
 343.322265625 48.8388671875 354.411132812 48 370 48 c 1
37 689 m 25
 86.97265625 685 116 680 166 680 c 19
 253 680 301.0390625 697 388 697 c 3
 593.40234375 697 791 569.276367188 791 354 c 3
 791 62.714268816 556.733398438 -9 364 -9 c 3
 290 -9 246.8984375 0 173 0 c 3
 132 0 73.6953125 -6 39 -12 c 9
 35 32 l 1
 69 38.763671875 124.787109375 50.1845703125 131 85 c 1
 138.37890625 128.385431005 140.948242188 179.750046337 140.948242188 223.1171875 c 3
 140.948242188 372.393155135 131.443359375 537.483451899 120 597 c 1
 116.971679688 621.125 75.5 641.3046875 35 648 c 9
 37 689 l 25
EndSplineSet
Position2: "cpsp-1" dx=0 dy=0 dh=50 dv=100
Substitution2: "c2pc-1" d.pcap
Substitution2: "c2sc-1" d.smcp
EndChar
StartChar: O
Encoding: 79 79 1303
Width: 845
Flags: HW
AnchorPoint: "Horn" 659.5 602 basechar 0
AnchorPoint: "Middle" 429.703 350.853 basechar 0
AnchorPoint: "Bottom" 422 -15 basechar 0
AnchorPoint: "Ogonek" 486 11 basechar 0
AnchorPoint: "Top" 426 699 basechar 0
LayerCount: 2
Fore
SplineSet
382 629 m 3
 285.235227253 629 207 557.693122795 207 400 c 3
 207 200.997487453 342.46632 48 470 48 c 3
 560.005555384 48 640 122.953222772 640 294 c 3
 640 460.277011214 523.483990178 629 382 629 c 3
428 689 m 3
 635.000298343 689 802 531.097817665 802 338 c 3
 802 147.521149692 643.999766667 -7 430 -7 c 3
 215.999648 -7 43 146.548375048 43 338 c 3
 43 525.390237603 218.000469169 689 428 689 c 3
EndSplineSet
Position2: "cpsp-1" dx=0 dy=0 dh=50 dv=100
Substitution2: "c2pc-1" o.pcap
Substitution2: "c2sc-1" o.smcp
EndChar
StartChar: eogonek
Encoding: 281 281 232
Width: 445
UnlinkRmOvrlpSave: 1
Flags: HW
AnchorPoint: "Top" 209 465 basechar 0
LayerCount: 2
Fore
SplineSet
367.069335938 45.6806640625 m 1
 287.984375 -24.4150390625 269.330078125 -97.8818359375 269.330078125 -153.823242188 c 3
 269.330078125 -189.192382812 291.750976562 -211.658203125 326.349609375 -211.658203125 c 3
 329.250976562 -211.658203125 334.442382812 -212.745117188 350.256835938 -209.223632812 c 1
 343.311523438 -204.868164062 359.475585938 -219.8046875 361.387695312 -226.29296875 c 1
 333.8984375 -280.849609375 288.590820312 -303.658203125 248.120117188 -303.658203125 c 3
 198.778320312 -303.658203125 154.912109375 -266.974609375 154.912109375 -202.493164062 c 3
 154.912109375 -146.52734375 206.487304688 -29.1611328125 360.892578125 66.0888671875 c 1
 367.069335938 45.6806640625 l 1
EndSplineSet
Refer: 215 101 N 1 0 0 1 0 0 2
Substitution2: "smcp-1" eogonek.smcp
Substitution2: "case-1" Eogonek
Substitution2: "pcap-1" eogonek.pcap
EndChar
StartChar: iogonek
Encoding: 303 303 1524
Width: 270
Flags: HW
LayerCount: 2
Fore
SplineSet
179.719726562 16.3388671875 m 1
 155.656140064 -42.162109375 149.98046875 -103.4765625 149.98046875 -150.165039062 c 3
 149.98046875 -185.534179688 172.401367188 -208 207 -208 c 3
 209.901367188 -208 215.091796875 -209.086914062 230.907226562 -205.565429688 c 1
 223.961914062 -201.209960938 240.125976562 -216.146484375 242.038085938 -222.634765625 c 1
 214.547851562 -277.19140625 169.241210938 -300 128.770507812 -300 c 3
 79.427734375 -300 35.5625 -263.31640625 35.5625 -198.834960938 c 3
 35.5625 -149.745117188 87.0848102991 -46.7998046875 163.54296875 36.7470703125 c 1
 179.719726562 16.3388671875 l 1
EndSplineSet
Refer: 300 105 N 1 0 0 1 0 0 2
EndChar
StartChar: oe
Encoding: 339 339 361
Width: 735
UnlinkRmOvrlpSave: 1
Flags: HW
AnchorPoint: "Top" 395 465 basechar 0
AnchorPoint: "Bottom" 393 -15 basechar 0
LayerCount: 2
Fore
SplineSet
261 416 m 3
 396.571345159 416 481 310.36694517 481 202 c 3
 481 71.8189060376 383.72697948 -15 260 -15 c 3
 133.235899884 -15 32 65.8222036262 32 191 c 3
 32 349.975914404 171.297091569 416 261 416 c 3
219 350 m 3
 168.004491611 350 160 297.770752263 160 257 c 3
 160 160.577796374 212.765408208 39 278 39 c 3
 334.109645049 39 349 110.894056925 349 154 c 3
 349 299.520905298 255.401311091 350 219 350 c 3
EndSplineSet
Refer: 215 101 N 1 0 0 1 326 0 2
Substitution2: "smcp-1" oe.smcp
Substitution2: "case-1" OE
Substitution2: "pcap-1" oe.pcap
EndChar
StartChar: uni0187
Encoding: 391 391 1584
Width: 743
Flags: HW
AnchorPoint: "Top" 426 699 basechar 0
AnchorPoint: "Bottom" 416 -15 basechar 0
LayerCount: 2
Fore
SplineSet
447 705 m 3
 503.405797101 705 546.015872216 687.499435143 586 677 c 0
 610.229826422 670.637488045 614.546712636 675.597439066 617.556640625 690.698242188 c 0
 625.603482305 731.069231922 647.591263085 763.379982068 676.950195312 792.549804688 c 0
 711.646328998 827.022450265 792.397957833 858.700195312 799.299804688 858.700195312 c 0
 822.400390625 858.700195312 859.799804688 827.899414062 859.799804688 798.200195312 c 0
 859.799804688 764.099609375 827.900390625 741 785 741 c 1
 776.0703125 778.125 756.723632812 785 734.400390625 785 c 0
 725.411027793 785 705.190917045 775.0563571 693.450195312 761.75 c 0
 678.603188684 744.923132234 672.056010049 683.813522974 676.977539062 636.334960938 c 2
 688 530 l 1
 657 524 l 1
 614.517241379 620 535.344827586 667 433 667 c 3
 273 667 146 559.113402062 146 368 c 3
 146 158.528358209 298 29 452 29 c 3
 554 29 636 82 673 171 c 1
 700 163 l 1
 691 116 683 90 671 43 c 1
 608 12 531 -13 438 -13 c 3
 218 -13 43 137.669467787 43 348 c 3
 43 522.94017094 167 705 447 705 c 3
EndSplineSet
EndChar
StartChar: uni019E
Encoding: 414 414 550
Width: 526
Flags: HW
AnchorPoint: "Top" 272 465 basechar 0
LayerCount: 2
Fore
SplineSet
515 -214 m 1
 510 -248 l 1
 471 -239 450 -237 408 -237 c 3
 378 -237 335 -242 309 -248 c 1
 305 -215 l 1
 343.064095077 -208.079255441 371.21600591 -212.92819944 373 -165 c 0
 375 -111.268656716 379 9.62686567164 379 60 c 3
 379 138.03125 377.588535002 255.239646208 374 287 c 0
 369 328.328358209 348 358 293 358 c 3
 245 358 203 344.4 170 324 c 1
 168 234.329113924 161 109.430379747 161 71 c 3
 161 27.80589946 195.795590225 30.6204409775 232 27 c 1
 228 -7 l 1
 189 -1 159 4 117 4 c 3
 87 4 51 -1 21 -5 c 1
 18 28 l 1
 55.449092135 34.8089258427 78.318284601 37.5524032329 87 76 c 0
 94 107 95 167 95 199 c 3
 95 219 92.9313485795 287.976104104 86 308 c 0
 77 334 72 336 54 336 c 3
 44 336 41 335 32 335 c 1
 30 364 l 1
 67 371 104 375 154 416 c 1
 175 401 l 1
 170 387.056338028 167 366.915492958 167 346 c 1
 215 377 267 415 330 415 c 3
 403 415 448 375 448 304 c 3
 448 239.885714285 446 169.942857143 446 100 c 3
 446 -26.8139534884 443.994358813 -149.457691099 449 -187 c 0
 452.785023974 -215.387679806 488.573254621 -208.714650924 515 -214 c 1
EndSplineSet
Substitution2: "smcp-1" uni019E.smcp
EndChar
StartChar: uni01EB
Encoding: 491 491 584
Width: 505
UnlinkRmOvrlpSave: 1
Flags: HW
AnchorPoint: "Top" 251 465 basechar 0
AnchorPoint: "Middle" 255 206 basechar 0
LayerCount: 2
Fore
SplineSet
385.719726562 30.3388671875 m 1
 306.633789062 -33.0809950055 287.98046875 -99.5508968109 287.98046875 -150.165039062 c 3
 287.98046875 -185.534179688 310.401367188 -208 345 -208 c 3
 347.901367188 -208 353.091796875 -209.086914062 368.907226562 -205.565429688 c 1
 361.961914062 -201.209960938 378.125976562 -216.146484375 380.038085938 -222.634765625 c 1
 352.547851562 -277.19140625 307.241210938 -300 266.770507812 -300 c 3
 217.427734375 -300 173.5625 -263.31640625 173.5625 -198.834960938 c 3
 173.5625 -146.827841159 225.13671875 -37.7647684574 379.54296875 50.7470703125 c 1
 385.719726562 30.3388671875 l 1
EndSplineSet
Refer: 358 111 N 1 0 0 1 0 0 2
Substitution2: "case-1" uni01EA
EndChar
StartChar: uni0253
Encoding: 595 595 616
Width: 507
Flags: HW
LayerCount: 2
Fore
SplineSet
137 332 m 1
 136 241 135 189 135 98 c 3
 135 92 139.047711202 85.0552192754 146 79 c 0
 177 52 219 36 260 36 c 3
 337 36 398 96 398 180 c 3
 398 270 344 369 243 369 c 3
 199 369 147 342 137 332 c 1
71 512 m 3
 71 606.576271186 91.6664492122 649.938384759 140 697 c 0
 178 734 266.484375 767.183908046 274 768 c 1
 295 768 329 740 329 713 c 3
 329 682 300 661 261 661 c 1
 252.882352941 694.75 235.294117647 701 215 701 c 3
 201.829268293 701 171.484739915 687.682705237 155 669 c 0
 140 652 140 563.432989691 140 541 c 0
 140 502 137 484 137 368 c 1
 170 382 226 412 286 412 c 3
 391 412 467 315 467 223 c 3
 467 94 351 -9 210 -9 c 3
 148 -9 141 15 108 15 c 3
 85 15 70 -3 63 -10 c 1
 45 2 l 1
 47 8 51.8855176995 21.6565530986 55 31 c 0
 61 40.9473684211 67.3038468848 51.9981262905 68 94 c 0
 69.5 257.764383562 71 348.235616438 71 512 c 3
EndSplineSet
EndChar
StartChar: uni025A
Encoding: 602 602 1546
Width: 562
Flags: HW
LayerCount: 2
Fore
SplineSet
414.276367188 277.443359375 m 1
 414.276367188 243.9713234 412.0390625 215.783897853 412.0390625 186.250976562 c 3
 412.0390625 134.933236347 425.149524633 95.5634765625 477.346679688 95.5634765625 c 3
 501.392496717 95.5634765625 524.501168121 118.040074393 562 140 c 1
 551.130859375 162.7890625 l 1
 542.557277479 158.504247818 529.703477788 148.063476562 519.434570312 148.063476562 c 3
 496.870703125 148.063476562 475.141289294 166.614738798 470.934570312 202.063476562 c 0
 466.297944032 241.134912003 468.616295143 286.18931991 469.514322862 315.999998854 c 1
 448 327.576171875 l 1
 314.639931757 257.455829682 153.467639438 182.967579318 20 131 c 1
 20 107 l 1
 31 106 46 98 51 86 c 0
 71.3556074335 37.1465421596 132 -8 190 -8 c 3
 224 -8 367 52 367 227 c 3
 367 334 306 417 199 417 c 3
 130 417 70 382 28 349 c 1
 49 322 l 1
 77 345 116 367 163 367 c 3
 222 367 292 321 292 207 c 3
 292 130.837433832 268.704814097 39 204 39 c 3
 158.425531915 39 112.85106383 89.9625 102 135 c 1
 110 139 l 0
 414.276367188 277.443359375 l 1
EndSplineSet
EndChar
StartChar: uni0263
Encoding: 611 611 626
Width: 469
Flags: HW
AnchorPoint: "Top" 246.5 465 basechar 0
LayerCount: 2
Fore
SplineSet
41 341 m 0
 31.5731472539 349.319334285 30.6765416405 358.949522692 20 363 c 0
 15.935483871 366 10.5161290323 371 6 369 c 1
 10 406 l 1
 36.6913580247 402 77.3086419753 400 104 400 c 3
 144.872340426 400 178.531914894 401 217 407 c 1
 221 374 l 1
 235.152942268 377.274508591 190.291589977 361.9978089 200 363 c 0
 196.919451962 362.127205953 195 359.909090909 195 346 c 3
 195 347.461538462 193.361178768 341.978166562 192 339 c 0
 168.505263158 288.550600344 384 32.4585459149 384 -200 c 3
 384 -277.724271498 315.286195986 -339 233 -339 c 3
 163.48960909 -339 109 -283.268120235 109 -216 c 3
 109 -113.54246073 184.713958041 -40.8447978399 256.804019788 83.9999935776 c 0
 307.537205998 171.80052556 318.538935882 227.327961549 345 295 c 0
 347.651190392 301.780205713 350 311 350 320 c 3
 350 352.108108108 336 366 270 374 c 1
 277 411 l 1
 314.402173913 404 366.282608696 400 388 400 c 3
 416.040540541 400 447.445945946 402 471 408 c 1
 478 371 l 1
 449.721394231 361.155671447 424.670441926 342.130737204 411 319 c 0
 397.036476851 290.358112805 351.99251328 189.437989991 283.756601142 63.0000089616 c 0
 244.231753268 -9.7106827139 183 -76.068607094 183 -142 c 3
 183 -203.167895825 215.283426207 -265 272 -265 c 3
 275.61342392 -265 274 -251.856261395 274 -240 c 3
 274 -159.537124538 242.838430904 -35.2420177383 182.844726562 78 c 0
 116.622784065 202.079577974 62.6744587578 320.292474605 41 341 c 0
EndSplineSet
EndChar
StartChar: uni026C
Encoding: 620 620 1747
Width: 333
Flags: HW
AnchorPoint: "Bottom" 168 -15 basechar 0
AnchorPoint: "Top" 170 734 basechar 0
LayerCount: 2
Fore
SplineSet
124 371 m 1
 122 396.081081081 113.136083052 435 80 435 c 3
 55.6257906919 435 44 411.657714844 44 390 c 3
 44 351.959399414 113.91765221 336 175 336 c 3
 225.902275354 336 252.837837838 343.5 303 353 c 1
 312 280 l 1
 254.733333333 273.1 233.081895031 268 182 268 c 3
 100.094702226 268 0 305.969726564 0 386 c 3
 0 427.962871093 28.2464688529 475 76 475 c 3
 128.413689339 475 141 406.115384616 153 373 c 1
 124 371 l 1
EndSplineSet
Refer: 318 108 N 1 0 0 1 48 0 2
EndChar
StartChar: uni0281
Encoding: 641 641 1559
Width: 496
Flags: HW
LayerCount: 2
Fore
SplineSet
178 185.194335938 m 1
 177 143.568359375 176.141870544 88.7710263708 183 52.1943359375 c 0
 189 20.1943359375 202 18.1943359375 215 16.1943359375 c 1
 276.354166667 16.8693949382 309 45 310 81 c 1
 310 141.985885417 253 186 202 187 c 1
 192.490566038 187 187.509433962 186.097167969 178 185.194335938 c 1
60 -0.8056640625 m 1
 60 23.1943359375 l 1
 96 24.1943359375 104 31.1943359375 109 63.1943359375 c 1
 111.161132812 111.770507812 112.201171875 147.366210938 112.201171875 182.44140625 c 3
 112.201171875 228.513671875 110.40625 273.686523438 107 346.194335938 c 1
 104 371.194335938 93 376.194335938 62 378.194335938 c 1
 66 405.194335938 l 1
 89.42578125 400.689453125 113.663085938 398.620117188 137.98046875 398.620117188 c 0
 167.643554688 398.620117188 197.42578125 401.69921875 226 407.194335938 c 1
 231 378.194335938 l 1
 201 373.194335938 190.01189389 371.096623389 187 345.194335938 c 0
 182 302.194335938 180 264.194335938 178 212.194335938 c 1
 198.641329451 213.190425312 207.518728562 215 229 215 c 1
 294.011235955 342.574821921 383.421457667 425.007783778 492 415.194335938 c 1
 498 386 l 1
 378 386 299.040609137 239.6 297 203 c 1
 339.683673469 191.283538696 386 151.078288824 386 100.194335938 c 1
 386 40.1943359375 322 -7.8056640625 246 -7.8056640625 c 1
 197 -7.8056640625 178 0.1943359375 135 0.1943359375 c 1
 105 0.1943359375 87 0.1943359375 60 -0.8056640625 c 1
EndSplineSet
EndChar
StartChar: uni0283
Encoding: 643 643 1560
Width: 309
Flags: HW
LayerCount: 2
Fore
SplineSet
114 266 m 0
 114 328.450964172 113 424.161769924 113 493 c 3
 113 601 143.077949695 661.439820849 200 704 c 0
 236.111111111 731 270.37037037 756 325 756 c 3
 357 756 407 745 432 723 c 1
 431 696 432 696 383 659 c 1
 344 677 313 701 275 701 c 3
 198.186440678 701 195.27024278 608.896437283 187 498 c 1
 187 434.60965851 185.722269097 351.021209812 185 293 c 0
 184.164092406 225.85 184.42446481 171.543697529 183.345703125 55 c 0
 182.342007512 -53.4339567976 179.423768933 -124.413476345 170.249023438 -172 c 0
 157.630814681 -237.446686212 132.308131815 -279.271062226 103.470703125 -323 c 1
 93.330078125 -322 94.189453125 -321 52.189453125 -321 c 3
 31.189453125 -321 -0.248046875 -325 -12.1083984375 -326 c 1
 -22.1669921875 -290 l 1
 34.828869585 -275.843201216 68.3758175305 -238.849077265 86.3564453125 -187 c 0
 104.803838183 -131.964818646 113.811919211 -53.1323947924 115.264648438 20 c 0
 116.034822802 87.1082535059 114 193.315942361 114 266 c 0
EndSplineSet
EndChar
StartChar: uni0285
Encoding: 645 645 1561
Width: 358
Flags: HW
LayerCount: 2
Fore
SplineSet
288 277 m 3
 288 307.571289062 275.333007812 357.538085938 250 384 c 0
 241.190429575 393.202148329 196.721679688 422 182 422 c 3
 168.1953125 422 105.616210937 403.338867188 55 367 c 0
 36.0535021732 353.397751719 28 340 28 326 c 3
 28 316 33 296 37 286 c 1
 112 316 l 1
 111 321 105 334 105 343 c 3
 105 360.357421875 109.166992188 370 130 370 c 3
 147.721679688 370 173.724609375 357.153320312 180 352 c 0
 203.466643931 332.729305941 220 303.416992188 220 246 c 3
 220 -15.2316979235 212.017578125 -23.9389180573 212.017578125 -154.58984375 c 3
 212.017578125 -216.7890625 227.557488974 -264.506835938 289.427734375 -264.506835938 c 3
 325.535156251 -264.506835938 360.235351563 -232.134765625 416.543945312 -200.506835938 c 1
 402.052734375 -170.12109375 l 1
 386.767578125 -177.216796875 363.851562501 -194.506835938 345.543945312 -194.506835938 c 3
 319.955616232 -194.506835938 292.681157537 -173.79462284 290.543945312 -133.506835938 c 0
 285 -29 288 60.9791676713 288 277 c 3
EndSplineSet
EndChar
StartChar: uni028A
Encoding: 650 650 1565
Width: 475
Flags: HW
AnchorPoint: "Top" 244 465 basechar 0
AnchorPoint: "Horn" 438 333 basechar 0
AnchorPoint: "Ogonek" 395 -3 basechar 0
AnchorPoint: "Bottom" 237 -15 basechar 0
LayerCount: 2
Fore
SplineSet
306 404 m 1
 366 404 421 407 429 411 c 1
 427 389 429 367 435 350 c 1
 401 353 l 1
 395 354 389 354 382 355 c 1
 375 356 360 358 347 359 c 1
 349 289 435 273 435 165 c 3
 435 74 345 -6 237 -6 c 3
 128 -6 40 71 40 165 c 3
 40 272 130 295 135 359 c 1
 120 358 105.948869282 356.42126704 96 355 c 0
 89 354 82 354 80 354 c 1
 45 353 l 1
 50 376 52 392 50 411 c 1
 58 407 115 404 175 404 c 1
 168.254545455 266 122 297 122 177 c 3
 122 101 184.09352518 33 259 33 c 3
 312.9 33 357 78 357 140 c 3
 357 263 312.735849057 260 306 404 c 1
EndSplineSet
EndChar
StartChar: uni0327
Encoding: 807 807 665
Width: 0
UnlinkRmOvrlpSave: 1
Flags: HW
AnchorPoint: "Bottom" -193 -15 mark 0
LayerCount: 2
Fore
SplineSet
-289.175 -200.003 m 1
 -287.435430125 -178.959546618 l 1
 -251.169286648 -170.434458157 -216.5859375 -167.064316721 -216.5859375 -139.911132812 c 3
 -216.5859375 -129.131933213 -226.428735942 -108.860650382 -253.841824406 -99.7169071687 c 1
 -251.446053766 -75.9038892469 l 1
 -245.12116688 -72.6037551369 -237.630041077 -71.7548474818 -231.521 -67.0766 c 0
 -205.309155413 -47.1056991115 -207.267228059 -41.3290989566 -185.476973117 5.43262322594 c 1
 -142.447973117 13.4325802859 l 1
 -142.447973117 13.4325802859 -158.0561507 -37.0081772234 -163.601695328 -46.1936874547 c 1
 -148.216879352 -55.0500289617 -110.572265625 -72.4542152581 -110.572265625 -111.428710938 c 3
 -110.572265625 -180.249935536 -210.350660835 -229.425096019 -289.175 -200.003 c 1
EndSplineSet
EndChar
StartChar: uni0357
Encoding: 855 855 682
Width: 0
Flags: HW
AnchorPoint: "TopMark" -200 382 mark 0
AnchorPoint: "TopMark" -198 562 basemark 0
AnchorPoint: "Top" -198 395 mark 0
LayerCount: 2
Fore
SplineSet
-219 457 m 1
 -196 457 -174 476 -174 502 c 3
 -174 526 -195 545 -219 545 c 1
 -225 545 l 1
 -225 577 l 1
 -219 577 l 1
 -177 577 -142 544 -142 502 c 3
 -142 457 -179 425 -219 425 c 1
 -225 425 l 1
 -225 457 l 1
 -219 457 l 1
EndSplineSet
EndChar
StartChar: uni0370
Encoding: 880 880 683
Width: 548
Flags: HW
AnchorPoint: "Top" 166 699 basechar 0
AnchorPoint: "Bottom" 163 -15 basechar 0
LayerCount: 2
Fore
SplineSet
29 -9 m 1
 19 26 l 1
 72 36 93.91015625 49.021484375 95 77 c 0
 98 155.005859375 99 534.903320312 93 620 c 0
 92 647 87 647 14 661 c 1
 19 692 l 1
 111 679.333007812 241 679 295 694 c 1
 301 652.047851562 l 1
 254.154296875 651.657226562 188.471679688 657.776367188 186 611 c 0
 182 527.59765625 177 445.224609375 176 368 c 1
 240 370 400 370 414 371 c 0
 451 378 456 414.400390625 472 476 c 1
 506 469 l 1
 489 388.24609375 493 308.75390625 504 228 c 1
 468 219 l 1
 448 306.135742188 455 322.090820312 414 327 c 0
 370 332 269 331 176 332 c 1
 175 235 179 147 191 81 c 0
 195 64 203 42 315 42 c 1
 309 -14 l 1
 204.374023438 12 156.543945312 12 29 -9 c 1
EndSplineSet
Position2: "cpsp-1" dx=0 dy=0 dh=50 dv=100
EndChar
StartChar: uni0372
Encoding: 882 882 685
Width: 788
Flags: HW
LayerCount: 2
Fore
SplineSet
158 312 m 0
 158.665039062 281.520507812 180.604492188 284.922851562 194 279 c 1
 194 279 190 256 189 242 c 1
 156.827148438 246.689453125 128.735351562 249.362304688 102 249.442382812 c 0
 78.232421875 249.50390625 55.537109375 247.805664062 32 244 c 1
 32 244 27 268 25 286 c 1
 44.63671875 290.875 66.4541015625 290.875 67 312 c 1
 79 416.999023438 84 603.912109375 72 627 c 1
 68.181640625 644.111328125 50.7275390625 644.111328125 30 648 c 1
 33 686 l 1
 56.6533203125 684.20703125 78.353515625 682.822265625 100.5 682.159179688 c 1
 266.081054688 682.954101562 520.212890625 682.123046875 692.5 681.71484375 c 1
 711.781561669 682.356445312 732.101313165 684.06640625 757 687 c 1
 763 650 l 1
 742.451843262 641.7890625 737.838684082 643.158203125 737 624 c 0
 726 527.192382812 709 335.813476562 730 300 c 1
 734.56677576 280.357421875 748.775918497 279.571289062 764 278 c 1
 764 278 759 258 760 244 c 1
 736.210531656 247.758789062 711.724685471 249.825195312 686 249.58984375 c 0
 661.250976562 249.32421875 635.399414062 246.657226562 608 241 c 1
 608 241 602 264 600 276 c 1
 622.897460938 284.461914062 637.20703125 286.1328125 638 309 c 0
 649.390625 412.486328125 649.434570312 496.606445312 643 611 c 0
 642.609375 627.709960938 617.73828125 642.413085938 576.5 643.53125 c 0
 529.358398438 645.216796875 463.9140625 651.794921875 461 611 c 0
 450 443.37890625 433 112.009765625 454 50 c 0
 463 25 491 24 521 22 c 1
 521 22 516 -0.94140625 517 -17 c 1
 442.306640625 5.56640625 367.328125 4.1357421875 286 -15 c 1
 286 -15 280 8 278 20 c 1
 325 30 354.373046875 31.974609375 356 59 c 0
 367.390625 248.15625 367.434570312 401.911132812 361 611 c 0
 360.181640625 655.258789062 275.310546875 646.499023438 226.5 646.43359375 c 0
 194.55859375 646.610351562 171.834960938 639.114257812 170 632 c 0
 156.96484375 567.3046875 151.73828125 391.74609375 158 312 c 0
EndSplineSet
Position2: "cpsp-1" dx=0 dy=0 dh=50 dv=100
EndChar
StartChar: uni0377
Encoding: 887 887 690
Width: 493
Flags: HW
LayerCount: 2
Fore
SplineSet
117 -9 m 3
 85 -9 64 19 64 105 c 3
 64 175.926136364 91 291.647727273 91 324 c 3
 91 345 81 359 66 359 c 3
 40 359 28 319 22 312 c 1
 0 324 l 1
 3 332 26 418 96 418 c 3
 116.76056338 418 163 407 163 333 c 3
 163 266.64516129 132 175.569892473 132 91 c 3
 132 63 140 59 151 59 c 3
 180.440918534 59 218.358147864 174.071762711 231.547851562 209 c 0
 259.906171475 282.929088615 294.106407457 418 376 418 c 3
 408 418 429 390 429 304 c 3
 429 233.07421875 402 117.352539062 402 85 c 3
 402 64 412 50 427 50 c 3
 453 50 465 90 471 97 c 1
 493 85 l 1
 490 77 467 -9 397 -9 c 3
 376.23943662 -9 330 2 330 76 c 3
 330 142.354492188 361 233.4296875 361 318 c 3
 361 346 353 350 342 350 c 3
 311.736671542 350 272.638813616 230.454743188 259.189453125 195 c 0
 231.17231089 121.783255884 197.500966277 -9 117 -9 c 3
EndSplineSet
EndChar
StartChar: rho
Encoding: 961 961 442
Width: 462
UnlinkRmOvrlpSave: 1
Flags: HMW
AnchorPoint: "Top" 246 465 basechar 0
LayerCount: 2
Fore
SplineSet
250 420 m 3
 353.270507812 420 410 310.59375 410 205 c 3
 410 113.912109375 371.389648438 21 266 21 c 3
 216.749363381 21 175.620253165 34.7471516927 147 46 c 1
 161.777965198 81.2669270833 169.221679688 102.733398438 184 138 c 1
 183.9140625 80.77734375 194.525390625 80 197 80 c 3
 213.408203125 80 238.638833875 91.277733784 251.013671876 114 c 0
 269.272626925 147.526486361 286 239.133051469 286 284 c 3
 286 327.415364583 289.379701381 380 249 380 c 3
 170.575673127 380 186 211.518073283 186 90 c 3
 186 -13.3060148665 197.248046876 -28.650390625 236 -49 c 0
 320.037799197 -73.3324072013 385 -117.838500977 385 -190 c 3
 385 -235.2421875 318.8515625 -288 265 -288 c 3
 232.984375 -288 201 -266.815429688 184 -253 c 1
 184 -226.291015625 203.25 -207 289 -161 c 1
 303.603515625 -168.5 316.3828125 -187 326 -187 c 3
 329.94140625 -187 337 -174.399362664 337 -170 c 3
 337 -130.342899531 306.258469199 -135.45566491 280 -134 c 0
 96.9375 -119.26953125 52 -45.3628890241 52 120 c 3
 52 261.982421875 113.66796875 420 250 420 c 3
EndSplineSet
Substitution2: "pcap-1" p.pcap
Substitution2: "smcp-1" p.smcp
EndChar
StartChar: Upsilon1
Encoding: 978 978 1342
Width: 697
Flags: HW
AnchorPoint: "Top" 335 699 basechar 0
AnchorPoint: "Bottom" 347 -15 basechar 0
LayerCount: 2
Fore
SplineSet
398 379 m 0
 383 286 393 164 404 80 c 0
 409 41 429 36 510 32 c 1
 505 -11 l 1
 402 3 314 9 209 -17 c 1
 197 25 l 1
 276 39 313 52 313 100 c 0
 313 150 313 339 304 380 c 0
 283 473 220 624 96 624 c 3
 75 624 54 616 31 600 c 1
 8 629 l 1
 26 655 78 700 119 700 c 3
 294 700 319 498 352 371 c 1
 381 498 403 700 563 700 c 3
 635 700 674 654 674 595 c 3
 674 535 647 511 609 511 c 3
 597 511 581 511 561 525 c 1
 560 550 568 562 586 586 c 1
 612 571 625 589 625 603 c 3
 625 618 599 624 586 624 c 3
 474 624 412 474 398 379 c 0
EndSplineSet
Position2: "cpsp-1" dx=0 dy=0 dh=50 dv=100
EndChar
StartChar: afii10053
Encoding: 1028 1028 41
Width: 746
UnlinkRmOvrlpSave: 1
Flags: HW
AnchorPoint: "Top" 433 699 basechar 0
AnchorPoint: "Bottom" 423 -15 basechar 0
LayerCount: 2
Fore
SplineSet
193 372 m 1
 257.806640625 376 419.60546875 376 434 378 c 0
 444.598632812 388 481 439.106445312 492 446 c 1
 535 439 l 1
 518 375 522 312 533 248 c 1
 488 235 l 1
 461 286.965820312 455.778320312 310 434 318 c 0
 389.4453125 328 287.171874999 326 193 328 c 1
 193 372 l 1
EndSplineSet
Refer: 1254 67 N 1 0 0 1 0 0 2
Position2: "cpsp-1" dx=0 dy=0 dh=50 dv=100
EndChar
StartChar: afii10018
Encoding: 1041 1041 9
Width: 599
Flags: HW
LayerCount: 2
Fore
SplineSet
327 349 m 0
 210 349 l 1
 211 251 211.405071907 155.012339425 213 96 c 0
 214 59 218.834844074 46.2330311851 245 41 c 0
 258.456790124 39 319.012345679 34 354 34 c 3
 433.50617284 34 494 83 494 178 c 3
 494 262 445.810945274 349 327 349 c 0
126 613 m 0
 125 640 111 640 38 654 c 1
 43 685 l 1
 223.294 675 489.658 685 496 700 c 1
 530 680 514 667 509 534 c 1
 478 531 l 1
 467 567 471.194704085 614.658655976 435 625 c 0
 384.085714286 643 302.554786298 650.012863436 237 641 c 0
 219 639 215.889176039 622.005814782 215 604 c 0
 211 523 212 379 212 379 c 1
 283.017761066 379 344.964501609 377.118798728 404 371.883789062 c 0
 519.134450796 356.551448525 584 273.933306029 584 181 c 3
 584 70 490.597701149 -4 345 -4 c 3
 282.725 -4 223.975 2 157 2 c 3
 98 2 53 -2 46 -2 c 1
 43 34 l 1
 90 36 127 35.9459853727 127 73 c 0
 127 78 130 176 130 292 c 3
 130 461 129.116900463 528.843687512 126 613 c 0
EndSplineSet
Position2: "cpsp-1" dx=0 dy=0 dh=50 dv=100
EndChar
StartChar: afii10021
Encoding: 1044 1044 12
Width: 696
Flags: HW
LayerCount: 2
Fore
SplineSet
454.541015625 35.6650390625 m 3
 475.90389393 35.6650390625 488.469408242 53.2758277482 490 77 c 0
 500 232 501.918377741 405.224333887 488 614 c 0
 487 629 473.185546875 643 463 643 c 0
 418.73832194 643 381.228594402 649.418085178 333 637 c 0
 317.86328125 633.102539062 296.461413377 618.457941124 294.963867188 592 c 0
 284.81329793 412.6645206 272.908139078 134.311510063 146.91015625 37 c 1
 238.299844626 37 344.135137502 35.6650390625 454.541015625 35.6650390625 c 3
327.494140625 684.529296875 m 1
 381.874621568 684 496.052648079 683.529296875 512.505859375 683.529296875 c 0
 551.139648438 683.529296875 558.34375 679 670 692 c 1
 672 649 l 1
 623.280273438 647 591.818730304 656.964561447 588 616 c 0
 577 498 568.933656695 319.263888956 580 66 c 0
 580.684311578 50.3389420217 588.236790467 41.7731006299 600.009765625 37 c 1
 676 37 l 1
 676 -240 l 1
 637 -240 l 1
 614.289805381 -63.9954910039 589.788800497 -6.18479577057 507.576171875 -0.4794921875 c 1
 410.033968132 -0.553448500389 298.874642269 -0.238335354242 203 0.05078125 c 1
 203 0 l 1
 109 0 83 -54 59 -240 c 1
 20 -240 l 1
 20 37 l 1
 61.990234375 37 l 1
 183.004425658 61.432012089 268.939563044 306.87533935 252 617 c 1
 248.181269696 659.205911794 216.719726562 648.939393939 168 651 c 1
 170 694 l 1
 281.65625 679.465298593 288.860351562 684.529296875 327.494140625 684.529296875 c 1
EndSplineSet
Position2: "cpsp-1" dx=0 dy=0 dh=50 dv=100
EndChar
StartChar: afii10045
Encoding: 1067 1067 34
Width: 877
Flags: HW
AnchorPoint: "Top" 480 699 basechar 0
AnchorPoint: "Bottom" 452 -15 basechar 0
LayerCount: 2
Fore
SplineSet
584 697 m 1
 682.505137087 679 738.550538031 681 843 694 c 1
 845 651 l 1
 798.599609375 649 768.831054688 658.946289062 765 618 c 0
 754 500.428710938 746.455078125 322.3671875 757 70 c 0
 758.629882812 31 801 36 845 34 c 1
 844 -5 l 1
 764.433908896 6 667.537354488 8 599 -6 c 1
 594 34 l 1
 633.83203125 34 669.767578125 31.0869140625 673 81 c 0
 683 235.422851562 681.981445312 495.44921875 671 616 c 0
 667.720703125 652 623.450195312 649 580 654 c 1
 584 697 l 1
306 349 m 0
 204 349 l 1
 205 251 205.405273438 155.012695312 207 96 c 0
 208 59 213.568359375 49.078125 239 41 c 0
 250.606004902 39 302.827627144 34 333 34 c 3
 412.505859375 34 473 83 473 178 c 3
 473 262 424.810546875 349 306 349 c 0
212 616 m 0
 206.870117188 523.665039062 206 379 206 379 c 1
 271.469464202 379 328.346657825 377.393554688 383 371.883789062 c 0
 498.134765625 356.551757812 563 273.93359375 563 181 c 3
 563 70 469.59765625 -4 324 -4 c 3
 266.69375 -4 212.63125 2 151 2 c 3
 92 2 47 -2 40 -2 c 1
 37 34 l 1
 84 36 121 35.9462890625 121 73 c 0
 121 78 124 176 124 292 c 3
 124 462.579101562 123.145507812 531.05859375 120 616 c 0
 119 643 105 643 32 657 c 1
 37 688 l 1
 110.293945312 681.428710938 198 681.571289062 310 692 c 1
 312 649 l 1
 254 647 214 652 212 616 c 0
EndSplineSet
Position2: "cpsp-1" dx=0 dy=0 dh=50 dv=100
EndChar
StartChar: afii10049
Encoding: 1071 1071 38
Width: 738
Flags: HW
AnchorPoint: "Top" 423 699 basechar 0
AnchorPoint: "Bottom" 362 -15 basechar 0
LayerCount: 2
Back
SplineSet
469 348 m 1
 473 415.215648438 469.90441797 502.310607842 462 571 c 0
 454 640.52 439 635 447 635 c 1
 334 635 302 622.402154737 302 556 c 3
 302 447.649681614 364.060727273 341 491 341 c 1
 482.278988826 341 477.721011174 347 469 348 c 1
693 689 m 1
 693 639 l 1
 649 637 629 614 618 544 c 1
 612.379500648 468.724381845 609.952752197 413.317261679 609.952752197 357.260988617 c 1
 609.952752197 285.517243482 613.36749892 213.674025063 624 106 c 1
 632 60 661 54 691 56 c 1
 682 -3 l 1
 630.532937228 4.79193878552 581.004961748 7.8916015625 530.430664062 7.8916015625 c 1
 467.079768381 7.8916015625 444.039885849 3.28339438519 401 -6 c 1
 389 59 l 1
 410 62 435.238662248 75.8425488684 444 127 c 0
 454 185.39 458 227.464 469 292 c 1
 453.643059016 286.79738178 407.675090961 278.739257812 395.168945312 278.739257812 c 0
 392.330622239 278.739257812 394.206514436 280.013381962 403 281.188476562 c 1
 369.730442787 156.885293835 225.183040905 -47.9597820031 38 -43 c 1
 28 7 l 1
 136.062700569 9.01747575976 164.901942568 134.440451196 252 309.188476562 c 1
 215.702290076 338.42303636 152 397.745833511 152 500 c 0
 152 606.68359375 267 695 405 695 c 0
 468 695 477 687 563 687 c 0
 632 687 659 688 693 689 c 1
EndSplineSet
Fore
SplineSet
469 348 m 1
 471.285714286 415.215648438 468.99508272 502.178457832 465 571 c 0
 460.2 620 456.4 634 447 635 c 1
 334 635 302 622.402154737 302 556 c 3
 302 413.985916191 400 350 446 346 c 1
 469 348 l 1
693 689 m 1
 693 639 l 1
 649 637 629 614 618 544 c 1
 612.379500648 468.724381845 609.952752197 413.317261679 609.952752197 357.260988617 c 1
 609.952752197 285.517243482 613.36749892 213.674025063 624 106 c 1
 632 60 661 54 691 56 c 1
 682 -3 l 1
 630.532937228 4.79193878552 581.004961748 7.8916015625 530.430664062 7.8916015625 c 1
 467.079768381 7.8916015625 444.039885849 3.28339438519 401 -6 c 1
 389 59 l 1
 410 62 435.238662248 75.8425488684 444 127 c 0
 454 185.39 458 227.464 469 292 c 1
 453.643059016 286.79738178 407.675090961 278.739257812 395.168945312 278.739257812 c 0
 392.330622239 278.739257812 394.206514436 280.013381962 403 281.188476562 c 1
 369.730442787 156.885293835 225.183040905 -47.9597820031 38 -43 c 1
 28 7 l 1
 136.062700569 9.01747575976 164.901942568 134.440451196 252 309.188476562 c 1
 215.702290076 338.42303636 152 397.745833511 152 500 c 0
 152 606.68359375 267 695 405 695 c 0
 468 695 477 687 563 687 c 0
 632 687 659 688 693 689 c 1
EndSplineSet
Position2: "cpsp-1" dx=0 dy=0 dh=50 dv=100
EndChar
StartChar: afii10077
Encoding: 1083 1083 59
Width: 486
Flags: HW
LayerCount: 2
Fore
SplineSet
452.200195312 409.400390625 m 1
 453.599609375 373.299804688 l 1
 424.71603695 371.900390625 407.28654843 378.762156067 403.799804688 350.200195312 c 0
 396.099609375 286.265196328 393.107456999 189.585686788 398.200195312 52.2001953125 c 0
 399.225939259 24.900390625 425.900322386 28.400390625 453.599609375 27 c 1
 452.900390625 -6.2998046875 l 1
 391.065429688 1.400390625 315.762695312 2.7998046875 262.5 -7 c 1
 259 27 l 1
 290.865984284 27 321.133879489 30.9537181786 322.200195312 59.900390625 c 0
 325.234711477 143.433250987 328.192345815 236.38617929 320.799804688 348.799804688 c 0
 320.099609375 359.299804688 310.4296875 369.099609375 303.299804688 369.099609375 c 3
 283.484182988 369.099609375 267.088630569 370.951985798 245.099609375 364.900390625 c 0
 234.50390625 362.171875 220.612001334 351.826832701 218.474609375 333.400390625 c 0
 214.010742188 294.003338179 202.146192753 217.629457194 196.799804688 161 c 0
 191.569335938 106.883789062 178.730017545 56.2733748935 150.599609375 30.099609375 c 0
 126.595047141 8.8359375 103.649066674 -6.2998046875 67.2001953125 -6.2998046875 c 3
 51.080078125 -6.2998046875 25.8935546875 1.400390625 13.2998046875 16.7998046875 c 1
 14.1572265625 51.6044921875 13.2998046875 51.6044921875 55.2998046875 99.2998046875 c 1
 75.0166015625 90 86.8212890625 77.599609375 109.900390625 77.599609375 c 3
 143.262695312 77.599609375 155.464541211 123.199036102 161.885742188 157.166992188 c 0
 175.8359375 260.415414225 185.161132812 379.056511082 185.5 410.799804688 c 1
 204.483398438 406.75 222.647954618 404.919401795 240.799804688 404.5 c 0
 271.104492188 403.799804688 333.030273438 403.470703125 341.954101562 403.470703125 c 3
 368.998046875 403.470703125 374.040039062 403.299804688 452.200195312 409.400390625 c 1
EndSplineSet
EndChar
StartChar: afii10092
Encoding: 1098 1098 74
Width: 526
Flags: HW
LayerCount: 2
Fore
SplineSet
315 214 m 0
 289 215 248 215 248 215 c 1
 248 160.463867188 248.787109375 106.94921875 250 73 c 0
 251 45 254.318359375 36.560546875 268 32 c 0
 274 30 322 25 337 25 c 3
 386 25 412 60.5810546875 412 115 c 1
 412 165 382.21875 211.415039062 315 214 c 0
205 403 m 3
 237 403 280 405 310 409 c 1
 311 382 l 1
 305 382 279.897460938 380.353515625 269 377 c 0
 256 373 255.87109375 359.01171875 255 349 c 0
 250 291.5 250 236.090820312 249 234 c 1
 303 234 344.211914062 238.157226562 380 231 c 0
 440 219 490 177 490 121 c 1
 490 46.599609375 430 -3 339 -3 c 3
 300 -3 250 1 207 1 c 3
 172 1 138 -2 132 -2 c 1
 130 22 l 1
 142 23 177 26 177 55 c 0
 177 57.0703125 181 107.805664062 181 172 c 1
 181 258.658203125 176.107421875 333.974609375 176 335 c 0
 174.154296875 352.61328125 167.296875 366 152 366 c 27
 125.850585938 366 107.41796875 365.96484375 85 358 c 0
 56.9873046875 348.046875 55 346 33 311 c 1
 7 323 l 1
 22 354 41 403 49 420 c 1
 61 411 72.9814453125 403.365234375 96 403 c 0
 144.702148438 402 180.262695312 403 205 403 c 3
EndSplineSet
EndChar
StartChar: afii10107
Encoding: 1114 1114 87
Width: 676
UnlinkRmOvrlpSave: 1
Flags: HW
LayerCount: 2
Fore
SplineSet
490 197 m 0
 467.880597015 198 433 198 433 198 c 1
 433 149.992840834 434 102.890893211 435 73 c 0
 436 45 441 40 453 32 c 0
 458.130434783 30 499.173913043 25 512 25 c 3
 561 25 587 60.5810546875 587 115 c 1
 587 156.414141414 557 192.03030303 490 197 c 0
401 195 m 1
 151 195 l 1
 150 146.94725817 150 97.8732257872 153 58 c 0
 154 26 183 27 201 21 c 1
 201 21 198 4 198 -3 c 1
 143 7 80 8 34 -2 c 1
 34 -2 31 16 30 25 c 1
 49 30 72 30 75 59 c 0
 85 157 87 338 80 356 c 0
 75 380 55 381 33 384 c 1
 35 409 l 1
 93 404 140 399 203 407 c 1
 205 383 l 1
 192 380 163 379 160 366 c 1
 155 346.410791999 155 278.828446151 153 223 c 1
 401 224 l 1
 401 195 l 1
496 382 m 1
 490 382 465 380 454 377 c 0
 441 373 441 359 440 349 c 0
 435 287 435 227.254449728 434 225 c 1
 483.877862595 225 521.748091603 228 555 222 c 0
 615 210.981818182 665 172.418181818 665 121 c 1
 665 46.599609375 605 -3 514 -3 c 3
 477.954545455 -3 431.742424242 1 392 1 c 3
 357 1 323 -2 317 -2 c 1
 315 22 l 1
 327 23 362 26 362 55 c 0
 362 57.0703125 366 107.805664062 366 172 c 1
 366 258.658203125 361 333.96875 361 335 c 0
 360 360 360 376 348 379 c 0
 343 380 319 383 314 384 c 1
 318 409 l 1
 326 409 358 403 390 403 c 3
 422 403 465 405 495 409 c 1
 496 382 l 1
EndSplineSet
EndChar
StartChar: afii10146
Encoding: 1122 1122 1591
Width: 702
Flags: HW
LayerCount: 2
Fore
SplineSet
124 538 m 0
 77 534 74 538 37 464 c 1
 -2 483 l 1
 18 522 47 601 58 623 c 1
 81 605 103.001404016 595.248545224 125 595 c 0
 221.851185839 593.5859375 318.702371678 592.171875 415.827148438 592.171875 c 3
 467.815729984 592.171875 519.861680911 593 572 593 c 0
 588 593 603 599 610 608 c 1
 635 592 l 1
 621 556 604 516 602 469 c 1
 565 475 l 1
 571 505 l 0
 582 556.578947368 386 545 329 545 c 3
 260.054022772 545 191.272423312 543.725312622 124 538 c 0
430 349 m 0
 313 349 l 1
 314 251 314.405071907 155.012339425 316 96 c 0
 317 59 321.606582411 44.9226914213 348 41 c 0
 361.456790124 39 422.012345679 34 457 34 c 3
 536.50617284 34 597 83 597 178 c 3
 597 262 548.810945274 349 430 349 c 0
321 616 m 0
 315.870297654 523.66535778 315 379 315 379 c 1
 386.017761066 379 448.251480651 379.707271074 507 371.883789062 c 0
 622.134450796 356.551448525 687 273.933306029 687 181 c 3
 687 70 593.597701149 -4 448 -4 c 3
 385.725 -4 326.975 2 260 2 c 3
 201 2 156 -2 149 -2 c 1
 146 34 l 1
 193 36 230 35.9459853727 230 73 c 0
 230 78 233 176 233 292 c 3
 233 462.579439252 232.145990654 531.058252345 229 616 c 0
 228 643 214 643 141 657 c 1
 146 688 l 1
 219.294 681.428571429 307 681.571428571 419 692 c 1
 421 649 l 1
 363 647 323 652 321 616 c 0
EndSplineSet
EndChar
StartChar: afii10098
Encoding: 1169 1169 80
Width: 380
Flags: HW
AnchorPoint: "Bottom" 147 -15 basechar 0
AnchorPoint: "Top" 193 465 basechar 0
LayerCount: 2
Fore
SplineSet
144.536132812 403.147460938 m 3
 104.284179688 403.147460938 64.14453125 404.017578125 31.6328125 405.640625 c 1
 28.1884765625 385.123046875 l 1
 66.2548828125 377.462890625 78.853515625 373.673828125 80.927734375 352.279296875 c 0
 82.854682093 332.403792823 83.765625 274.528320312 83.765625 216.577148438 c 0
 83.765625 156.567382812 82.8893830076 85.4881028102 81.5673828125 67.4853515625 c 1
 78.3203125 34.23828125 63.3134765625 24.65234375 35.67578125 17.072265625 c 1
 42.162109375 -5.91015625 l 1
 77.2761107261 -0.0403599281449 106.572636719 3.05508575498 134.03299781 3.05508575498 c 0
 164.671538954 3.05508575498 193.024295199 -0.798338842768 224.62109375 -8.951171875 c 1
 228.641601562 26.4501953125 l 1
 175.532226562 26.888671875 160.9609375 37.361328125 157.862304688 70.03125 c 0
 152.883465241 122.524819144 150.590820312 182.3359375 150.590820312 228.225585938 c 0
 150.590820312 273.225585938 152.794921875 315.416992188 156.830078125 355.518554688 c 0
 157.804750839 365.204895519 158.892578125 374.181640625 167.969726562 375.13671875 c 0
 179.734799199 376.374614505 192.186472299 378.46875 205 378.46875 c 3
 273.868702985 378.46875 330.800934553 372.213920507 332.629882812 363.94921875 c 1
 348.622070312 371.586914062 353 379.8359375 353 395.428710938 c 0
 353 411.381835938 348.41796875 440.022460938 347.001953125 478.559570312 c 1
 326.485351562 480.44921875 l 1
 320.068359375 463.4609375 321.306684627 433.276394833 296.409179688 420.331054688 c 0
 265 404 202.518302121 403.147460938 144.536132812 403.147460938 c 3
EndSplineSet
EndChar
StartChar: uni263D
Encoding: 9789 9789 970
Width: 553
Flags: HW
LayerCount: 2
Back
SplineSet
294.37109375 57.087890625 m 0
 299.244844898 88.9716115552 413.529296876 123.284602635 413.529296876 296.1875 c 0
 413.529296876 363.018508431 385.265012895 417.319151508 323.975585938 463.689453125 c 0
 298.350463302 479.893445118 292.882466706 501.779141713 270.873046875 520.926757812 c 1
 301.933411822 474.31799433 354.807396942 446.016466562 376.759765625 388.919921875 c 0
 387.584638245 358.253131594 392.094726562 326.683470136 392.094726562 294.2109375 c 0
 392.094726562 86.9895356812 270.608886718 75.146630351 266.388671876 52.91015625 c 1
 275.51342309 55.6955958323 285.022461841 54.3730228895 294.37109375 57.087890625 c 0
EndSplineSet
Fore
SplineSet
283.109375 278.40234375 m 3
 283.109375 352.811764429 253.186412015 497 139 497 c 1
 68.1432579419 497 52.771483147 445.747070312 32.01953125 445.747070312 c 0
 30.2160654068 445.747070312 27.509765625 446.64889464 27.509765625 449.35546875 c 0
 27.509765625 463.787171052 67.1979056189 559.3984375 237.67578125 559.3984375 c 1
 418.075819517 559.3984375 525.4140625 415.980290457 525.4140625 277.073242188 c 3
 525.4140625 166.127182821 454.17131604 56.9517967184 360.348632812 15.494140625 c 0
 321.562780056 -1.64425799589 279.167558234 -7.958984375 236.7734375 -7.958984375 c 1
 63.5894639568 -7.958984375 25.7060546875 98.4765625 25.7060546875 98.4765625 c 0
 25.7060546875 105.693608581 38.4532873865 108.6113749 45.0400390625 100.280273438 c 0
 54.187356422 88.7104993243 90.044883535 54 139 54 c 3
 241.758061401 54 283.109375 163.933862418 283.109375 278.40234375 c 3
262 51 m 0
 311.666401076 68.0955933075 399.529296875 136.757278469 399.529296875 277.1875 c 3
 399.529296875 368.047623403 362.355666422 432.831535119 318.975585938 467.689453125 c 0
 297.518213225 484.931452916 263.061301731 508.14266941 222 506 c 1
 261.207173697 484.456001425 294.599631788 449.521735933 309.854492188 403.130859375 c 0
 323.243176207 362.415128693 330.189453125 321.18040094 330.189453125 278.421875 c 3
 330.189453125 111.969440083 252.22777243 65.037603266 224 46 c 1
 236.391370114 46 252.538905245 47.6332314791 262 51 c 0
EndSplineSet
EndChar
StartChar: diamond
Encoding: 9830 9830 204
Width: 619
Flags: HW
LayerCount: 2
Fore
SplineSet
303.391601562 678.125 m 0
 315.719726562 678.125 381.647460938 535.466796875 564.49609375 352.197265625 c 0
 566.719726562 349.96875 569.115234375 347.401367188 569.115234375 343.270507812 c 0
 569.115234375 328.759765625 440.458984375 228.978515625 312.416992188 -2.9228515625 c 0
 310.322265625 -6.7138671875 306.982421875 -10.6796875 303.08203125 -10.6796875 c 0
 300.265625 -10.6796875 297.158203125 -8.61328125 294.016601562 -2.9228515625 c 0
 164.142578125 232.295898438 37.400390625 327.814453125 37.400390625 342.240234375 c 0
 37.400390625 358.642578125 154.798828125 446.1640625 294.016601562 670.517578125 c 0
 296.497070312 674.514648438 299.004882812 678.125 303.391601562 678.125 c 0
EndSplineSet
EndChar
StartChar: uni2B24
Encoding: 11044 11044 1016
Width: 1070
Flags: HW
LayerCount: 2
Fore
SplineSet
35 260.54296875 m 3
 35 536.330078125 258.684570312 760 535 760 c 3
 811.315429688 760 1035 536.330078125 1035 260.54296875 c 3
 1035 -15.244140625 811.315429688 -240 535 -240 c 3
 258.684570312 -240 35 -15.244140625 35 260.54296875 c 3
EndSplineSet
EndChar
StartChar: b.pcap
Encoding: 57348 57348 165
Width: 492
Flags: HW
AnchorPoint: "Bottom" 234 -15 basechar 0
AnchorPoint: "Top" 229 465 basechar 0
LayerCount: 2
Fore
SplineSet
253 231 m 0
 275.306852254 233.478539139 296 250.982763743 296 280 c 3
 296 326.043457733 263.735507246 362 231 362 c 3
 224 362 l 0
 221.229416496 358.806682223 221.42205963 346.116488017 221 337 c 0
 218.5 283 218 237.074766355 218 229 c 1
 226 229 243.836844723 229.981871636 253 231 c 0
231 199 m 3
 217.733500839 199 218 199 218 199 c 1
 218 163.221921992 220.0105551 130.109130963 222 107 c 0
 225.949024419 61.1286504225 230.196556652 42.3278987905 243 40 c 0
 254 38 263.761210517 38 270 38 c 3
 293.520000002 38 306 61.9997033228 306 98 c 3
 306 149.010569853 285.12371134 199 231 199 c 3
60 31 m 1
 80.1780563344 31.7456709957 96.1339502008 40.1634358934 104 78 c 0
 104.830156249 81.9931427995 112 128.619469026 112 168 c 3
 112 212.898869555 105.651615518 294.209981846 104 307 c 0
 99.9119746064 338.657439894 96.29799964 365.279584003 86 370 c 0
 82.1180215053 371.779428435 63.8235294118 373.2 60 374 c 1
 64 407 l 1
 73.7777777778 407 112.888888889 401 152 401 c 3
 176.6 401 210.22 407 234 407 c 3
 369 407 410 347 410 305 c 3
 410 255.959200659 373 231 336 221 c 1
 391.636363636 208.781941372 438 166.018252212 438 109 c 1
 438 41.5927734375 371.642384106 -3 271 -3 c 3
 236.247524752 -3 192.227722772 1 154 1 c 3
 111.533333333 1 70.28 -2 63 -2 c 1
 60 31 l 1
EndSplineSet
EndChar
StartChar: d.pcap
Encoding: 57350 57350 197
Width: 560
Flags: HW
AnchorPoint: "Bottom" 258 -15 basechar 0
AnchorPoint: "Top" 269 465 basechar 0
LayerCount: 2
Fore
SplineSet
258 42 m 3
 327.720670391 42 362 94.7164047615 362 202 c 3
 362 305.199628798 294.525353003 374 260 374 c 3
 260 374 256.677097675 376.140192889 246 369 c 0
 233.144329051 360.40290994 231.115245118 348.037206064 231 347 c 0
 228 320 222.628042503 222.967598351 222.628042503 163.376323411 c 3
 222.628042503 135.677277639 226 87 227 76 c 0
 227.45267873 71.0205339677 232.605786938 62.103345021 244 49 c 0
 247.652173913 44.8 252.193420392 42 258 42 c 3
60 404 m 1
 85 403 111 401 136 401 c 3
 186 401 213 409 263 409 c 3
 426 409 504 303.909179688 504 205 c 3
 504 42.3525390625 365 -5 249 -5 c 3
 207 -5 183 -1 140 -1 c 3
 96 -1 81 -4 62 -7 c 1
 61 18 l 1
 87.2380952381 15.8888888889 90.4499097095 19.4335062414 99 70 c 0
 104.574256559 102.966974611 106.984157786 142.556076151 106.984157786 181.330678414 c 3
 106.984157786 248.584835938 100.713225094 314.747991712 92 347 c 0
 84.2710301481 375.608786878 90.4 374.129032258 60 376 c 1
 60 404 l 1
EndSplineSet
EndChar
StartChar: gha.pcap
Encoding: 57468 57468 282
Width: 604
UnlinkRmOvrlpSave: 1
Flags: HW
LayerCount: 2
Fore
SplineSet
260 381 m 3
 192.323242188 381 132.180664062 322.274345127 132.180664062 223.540039062 c 3
 132.180664062 116.092080422 202.826171875 17 289 17 c 3
 308.265609759 17 323.313624648 21.87890625 332.247070312 27.3681640625 c 1
 337.659179688 36.9170846911 341.010742188 150.738869924 341.010742188 208.404296875 c 3
 341.010742188 262.021610774 335.073242188 346.153376924 322.110351562 367.356445312 c 1
 304.341510144 375.458007812 284.928741433 381 260 381 c 3
283.436523438 416 m 3
 326.863337068 416 366.5443967 402.477539062 397.170898438 380.124023438 c 1
 395.158203125 322.65625 388.18359375 265.188476562 388.18359375 207.721679688 c 3
 388.18359375 145.791015625 395.610351562 83.8593749996 398.357421875 21.9287109375 c 1
 366.222525086 -0.5986328125 324.170185636 -14.1611328125 276.623046875 -14.1611328125 c 3
 154.625 -14.1611328125 56 68.9960937498 56 192.034179688 c 3
 56 333.604492188 173.380859375 416 283.436523438 416 c 3
389 382 m 1
 436.557324932 386.541015625 479.528149236 391.837890625 528 410 c 1
 548 394 l 1
 531.261151596 347.84135743 526 214.200613147 526 175 c 3
 526 104.559570312 526.117400223 11.6194983259 535 -55 c 0
 537.538697464 -73.4802241831 570.842267676 -77.4520248548 588 -79 c 1
 584 -109 l 1
 558.416015625 -104.63671875 520.551757812 -101 493 -101 c 3
 463 -101 427 -108 397 -112 c 1
 394 -83 l 1
 437.916525384 -79.0075886014 459.433171982 -77.5248154491 462 -33 c 0
 464 20.373046875 465 99.4921875 465 155 c 3
 465 182.84035773 465.390361926 241.192761474 461 329 c 0
 459.826086957 345 453.956521739 358 434 358 c 3
 425.999511719 358 405.999511719 354 394 353 c 1
 389 382 l 1
EndSplineSet
EndChar
StartChar: uni1E9E.pcap
Encoding: 57620 57620 771
Width: 613
Flags: HW
LayerCount: 2
Fore
SplineSet
366 383 m 1
 344.355174228 390.369957837 320.297351962 393.014648438 302.822265625 393.014648438 c 3
 253.793155905 393.014648438 216.164977726 379.582430505 190.000120552 356.031344298 c 0
 160.231838477 329.236801805 145.301757812 289.344326748 145.301757812 241.233398438 c 0
 145.301757812 224.6205311 147.664027657 71.465000328 147.860351562 67.8408203125 c 0
 150.454593739 19.9505716539 166.271009111 18.2092666311 206.655273438 12.9853515625 c 1
 203.875 -10.0751953125 l 1
 151.136305255 -5.9794921875 64.5402414073 -5.9794921875 25.474609375 -10.0751953125 c 1
 22 15.3251953125 l 1
 68.5133792917 23.4839553171 75.3203125 23.2030376109 75.3203125 66.0859375 c 0
 75.3203125 73.7940893551 73.845703125 233.625719486 73.845703125 249.04296875 c 3
 73.845703125 303.065026012 105.393572923 353.879933925 157.999995717 386.269134673 c 0
 194.040003131 408.458574157 239.963737229 422 292.3984375 422 c 3
 366.684570312 422 429.2265625 399.014648438 470.986328125 378.153320312 c 1
 461.953125 358.751953125 l 1
 388.618164062 378.8125 341.041015625 335.203125 341.041015625 295.053710938 c 3
 341.041015625 260.562332524 373.554020873 254.630077245 434 237 c 0
 530 209 557 161.639635854 557 106.056640625 c 3
 557 59.1215634756 521.973727701 -6 399.700195312 -6 c 3
 368.486374121 -6 335.569969287 -3.22206140278 307.194335938 7.3798828125 c 0
 293.947233929 12.3293771472 290.991210938 10.3450600861 287.041992188 -3.490234375 c 1
 264.805664062 -0.150390625 l 1
 265.25082599 42.3498638177 263.915965434 53.4368420119 252.348632812 119.341796875 c 1
 275.974609375 122.8515625 l 1
 284.217214464 90.6959408386 293.016846197 81.3021902715 306.940429688 68.3505859375 c 0
 330.435041569 46.4960886891 382.008215071 25.1552734375 418.682617188 25.1552734375 c 3
 470.196864247 25.1552734375 491.408203125 61.2827235712 491.408203125 89.111328125 c 3
 491.408203125 147.703499743 419.529375464 167.406570069 386 177 c 0
 366.116506556 182.689068123 272.229492188 205.260662942 272.229492188 285.428710938 c 3
 272.229492188 323.480823534 304 369.865384421 366 383 c 1
EndSplineSet
Substitution2: "salt-1" germandbls.pcap
EndChar
StartChar: o.smcp
Encoding: 57685 57685 1517
Width: 651
Flags: HW
AnchorPoint: "Top" 329 539 basechar 0
AnchorPoint: "Bottom" 331 -15 basechar 0
LayerCount: 2
Fore
SplineSet
297.9 461.7 m 3
 205.2 461.7 134.6 390.254980469 134.6 285.3 c 3
 134.6 157.18046875 232.1 35.3 349.6 35.3 c 3
 450.1 35.3 509.9 116.794824219 509.9 218.7 c 3
 509.9 354.346972656 409.1 461.7 297.9 461.7 c 3
332.8 500.9 m 3
 481.7 500.9 599 382.609765625 599 242.9 c 3
 599 105.828222656 487.9 -5.6 329.9 -5.6 c 3
 165.6 -5.6 52.1 120.932324219 52.1 242.9 c 3
 52.1 380.8390625 180.9 500.9 332.8 500.9 c 3
EndSplineSet
EndChar
StartChar: exclam.smcp
Encoding: 57797 57797 243
Width: 260
Flags: HW
LayerCount: 2
Fore
SplineSet
108.3 163.5 m 1
 108.3 252.2 107.7 318.7 97.9 383.9 c 0
 93.9 420.4 71.3 438.8 73.3 477.6 c 1
 133.3 484.8 191.7 514.2 196.7 482.5 c 1
 182.1 454.9 183.4 436.8 178.1 383.9 c 0
 167.1 298.8 148.4 253.8 148.4 162.5 c 1
 108.3 163.5 l 1
EndSplineSet
Refer: 405 46 N 0.885815 0 0 0.921985 36.924 -2.8 2
EndChar
StartChar: uni0251.smcp
Encoding: 57991 57991 615
Width: 575
Flags: HW
LayerCount: 2
Fore
SplineSet
407.272070312 97.0204101564 m 1
 408.918193914 201.538258534 411.387304687 260.613015536 411.387304687 363.994628906 c 3
 411.387304687 372.204362461 406.785951551 393.950187585 399.556835938 403.674804688 c 0
 377.673473479 433.124157428 331.376547081 443.247167969 293.083496094 443.247167969 c 3
 188.802852068 443.247167969 107.544824219 338.013635704 107.544824219 221.702246094 c 3
 107.544824219 134.115578288 166.174502841 45.5555664063 277.90234375 45.5555664063 c 3
 357.807114033 45.5555664063 394.588986829 81.8838105015 407.272070312 97.0204101564 c 1
488.449023437 39.7528320313 m 0
 492.805707475 23.6124259712 503.873924417 27.6072396047 505.011621094 27.93203125 c 0
 518.80061344 31.6853145283 545.393633077 39.1918810848 557.212695313 42.9450195312 c 1
 567.860058594 14.929296875 l 1
 513.231313385 -6.89833838076 448.295405365 -32 433.865136719 -32 c 3
 425.583691406 -32 413.432508287 -29.7714325692 412.570410156 -11.9047851562 c 0
 411.387304687 12.9490966022 411.387304687 57.2539328554 411.387304687 61.5763671875 c 1
 366.451302083 33.6795117187 297.005044477 -8.1662109375 215.302929688 -8.1662109375 c 3
 108.541839105 -8.1662109375 27.2 91.2149578538 27.2 184.511816406 c 3
 27.2 350.990281659 175.424639722 491.658398438 351.052441406 491.658398438 c 3
 415.272736898 491.658398438 415.272736898 482.202050781 441.127734375 482.202050781 c 3
 468.337402344 482.202050781 477.801660156 507.025585938 486.083105469 515.3 c 1
 508.560644531 502.297265625 l 1
 506.194726563 495.204785156 501.508621284 475.544318228 497.913574219 464.470703125 c 0
 490.815234375 441.700555098 483.87245471 416.526836516 480.167871094 320.2578125 c 0
 478.984765625 290.445840474 478.984765625 164.043342461 478.984765625 113.959277344 c 3
 478.984765625 89.3580847512 482.542712412 61.6335100654 488.449023437 39.7528320313 c 0
EndSplineSet
EndChar
StartChar: eng.altsmcp
Encoding: 57995 57995 229
Width: 542
Flags: HW
LayerCount: 2
Fore
SplineSet
371.9 -243.6 m 0
 328.952205883 -272 295.9 -295.6 236.9 -295.6 c 3
 204.9 -295.6 154.9 -284.6 129.9 -262.6 c 1
 130.967346939 -234.7140625 129.9 -234.7140625 182.2 -196.5 c 1
 214.880555555 -213 238.562152755 -235 272.7 -235 c 3
 302.728873947 -235 343.845131536 -231.609390999 362.897628573 -211.500000461 c 0
 390.38004467 -182.641574818 406.279246551 -144.880111257 411.903648307 -108.200000929 c 0
 417.644494457 -72.2148162904 420.624414063 -4.870587954 420.624414063 138.8 c 3
 420.624414063 213.446820959 418.517800894 312.275879442 416.120117188 343.175 c 0
 411.437109375 397.015397621 388.467773438 435.55 324.739941406 435.55 c 3
 266.226757813 435.55 215.027832031 418.53 174.8 393 c 1
 173.506640625 282.302450059 168.979882812 128.116890823 168.979882812 80.675 c 3
 168.979882812 28.8279968095 202.899003001 33.0095039968 245.5 26.7 c 1
 245.5 26.7 241.5 -4 241.2 -8.2 c 1
 198.417718159 -1.41961969309 163.929477178 3.53369404002 121.683681685 3.53369404002 c 3
 89.6338451269 3.53369404002 53.8593722346 -1.04165407609 21.9 -6.2 c 1
 21.9 -6.2 18.3 24.1 17.7 29.5 c 1
 61.1078215258 37.1317754337 85.986687036 42.0762347575 92.4600585936 86.8 c 0
 97.7573242186 126.359667969 98.3 202.935839844 98.3 243.775 c 3
 98.3 268.275 95.5011083517 352.768335042 89.7798828125 377.3 c 0
 82.1266601562 411.86875 72.4913085938 414.3 57.1201171875 414.3 c 3
 46.6018554688 414.3 37.7 410.9 26.0600585938 410.375 c 1
 22.2 441.4 l 1
 61.9213867188 449.248144531 102.242773438 456.649804688 155.320117187 499.7 c 1
 158.720504869 498.867636237 175.140038376 486.425119436 176.108605005 483.50000069 c 1
 174.554260557 467.863462073 172.760058594 442.230982545 172.760058594 419.95 c 1
 228.339746094 455.903222656 288.551367187 499.975 361.5 499.975 c 3
 442.629003906 499.975 492.639941406 450.975 492.639941406 364 c 3
 492.639941406 277.131568456 490.257226563 165.956934477 490.257226563 -12 c 3
 490.257226563 -82.1315841367 481.511167372 -124.464879622 464.489841486 -155.4 c 0
 443.620138625 -190.842558469 414.801457604 -215.076840066 371.9 -243.6 c 0
EndSplineSet
EndChar
StartChar: Uni031B
Encoding: 58038 58038 1333
Width: 0
Flags: HW
AnchorPoint: "Horn" -129.5 573 mark 0
LayerCount: 2
Fore
SplineSet
-67.345703125 629.491210938 m 3
 -67.345703125 639.099609375 -87.4765625 655.436523438 -107.697265625 679.697265625 c 1
 -85.939453125 728.100585938 -48.3798828125 758.5546875 -14.013671875 758.5546875 c 3
 37.6630859375 758.5546875 53.6875 714.796875 53.6875 701.498046875 c 3
 53.6875 650.996331856 -39.308593938 576.741682658 -118.999998003 565.275309344 c 0
 -125.598977613 564.32581718 -132.106727707 563.80686072 -138.462890625 563.767578125 c 1
 -139.0625 585.368164062 l 1
 -133.847391384 585.52579196 -128.424290916 586.042437308 -123.000000798 586.921534572 c 0
 -95.1884889243 591.428856902 -67.345703125 605.464443094 -67.345703125 629.491210938 c 3
EndSplineSet
EndChar
StartChar: Q.alt
Encoding: 58116 58116 1314
Width: 802
Flags: HW
AnchorPoint: "Bottom" 357 -15 basechar 0
AnchorPoint: "Top" 409 699 basechar 0
AnchorPoint: "Middle" 406.697 364.853 basechar 0
LayerCount: 2
Back
SplineSet
383 650 m 3
 285.177734375 650 215 553.41540891 215 413 c 3
 215 230.370535314 297.950117187 58 431 58 c 3
 546.532587756 58 599 158.499503714 599 300 c 3
 599 503.183323563 498.862314756 650 383 650 c 3
584 53 m 1
 813 -103 931.770337555 -182 1039 -182 c 3
 1135.90695546 -182 1183.17277487 -165.333333333 1240 -157 c 1
 1251 -192 l 1
 1121 -251 982.544715447 -257 931 -257 c 3
 765.996969725 -257 597 -125 395 1 c 1
 184.806082589 14.4287109375 43 166.405273438 43 361 c 3
 43 566.274414062 205.167630058 690 405 690 c 3
 605.727272727 690 773 546.549168577 773 354 c 3
 773 218.288588441 686 100.577419355 584 53 c 1
EndSplineSet
Fore
SplineSet
383 650 m 3
 285.177734375 650 215 553.41540891 215 413 c 3
 215 230.370535314 297.950117187 58 431 58 c 3
 546.532587756 58 599 158.499503714 599 300 c 3
 599 503.183323563 498.862314756 650 383 650 c 3
584 53 m 1
 813 -103 931.770337555 -182 1039 -182 c 3
 1135.90695546 -182 1183.17277487 -165.333333333 1240 -157 c 1
 1251 -192 l 1
 1121 -251 982.544715447 -257 931 -257 c 3
 765.996969725 -257 597 -125 395 1 c 1
 184.806082589 14.4287109375 43 166.405273438 43 361 c 3
 43 566.274414062 205.167630058 690 405 690 c 3
 605.727272727 690 773 546.549168577 773 354 c 3
 773 218.288588441 686 100.577419355 584 53 c 1
EndSplineSet
Position2: "cpsp-1" dx=0 dy=0 dh=50 dv=100
EndChar
StartChar: Eng.alt3
Encoding: 58130 58130 1660
Width: 644
Flags: HW
AnchorPoint: "Top" 376 699 basechar 0
LayerCount: 2
Fore
SplineSet
472 44 m 0
 426.066666667 17 382.488888889 -8 313 -8 c 3
 271.728971963 -8 207.242990654 9 175 43 c 1
 176.224489796 72.953125 175 72.953125 235 114 c 1
 285.194444444 88.2857142857 315.245666768 54 374 54 c 3
 417.450468917 54 449.186864252 63.9905435128 472.325195312 81 c 0
 501.877706284 109.739655095 511.027618753 158.677923894 516.678710938 213 c 0
 520.066058138 245.561445895 517.748046875 281.159060346 517.748046875 313 c 3
 517.748046875 375.268765432 515.642420769 448.096622322 514.400390625 474.25 c 0
 510.45703125 557.28515625 482.892578125 616.5 398.799804688 616.5 c 3
 315.755859375 616.5 243.092773438 591.5 186 554 c 1
 186.35546875 459.455535262 187.599609375 327.769221436 187.599609375 287.25 c 3
 187.599609375 215.212890625 219.473632812 222.583984375 277 210 c 1
 277 210 273 187 272 173 c 1
 220.392405859 181.601053836 175.431613044 186.4453125 132.612304688 186.4453125 c 3
 95.7795051706 186.4453125 60.5312516805 182.860923474 24 175 c 1
 24 175 19 199 17 217 c 1
 74.3115234378 226.551757812 102.518532511 236.67773762 105.200195312 296 c 0
 106.524414062 325.293635292 106 382.005874876 106 412.25 c 3
 106 435.506880734 100.53317978 515.611291266 98.599609375 539 c 0
 94.0888671875 593.5625 73.6376953125 597 64.400390625 597 c 3
 52.6728515625 597 30 588 12.2001953125 586.25 c 1
 4 622 l 1
 50.0712890625 631.827148438 98.142578125 647.166015625 158.400390625 695 c 1
 169.73501623 692.225454124 175.466794585 685.750398119 178.695350016 676.0000023 c 0
 185.180868524 656.413418178 186.200195312 617.967124914 186.200195312 592.5 c 1
 259.465820312 640.010742188 338.837890625 698.25 435 698.25 c 3
 535.096679688 698.25 596.799804688 628.25 596.799804688 504 c 3
 596.799804688 467.128343862 595.857421875 395.859131808 595.857421875 340 c 3
 595.857421875 246.803714304 591.063673962 193.908880291 570.6328125 149 c 0
 552.977247305 110.19147177 522.974972619 79.2903656592 472 44 c 0
EndSplineSet
EndChar
StartChar: afii10072.alt
Encoding: 58153 58153 1674
Width: 628
Flags: HW
AnchorPoint: "Bottom" 310 -15 basechar 0
LayerCount: 2
Fore
SplineSet
345 237 m 1
 345 157.525 348.720726578 80.5662387277 353 50 c 0
 355 35.7142857143 363.216496592 32.8756009088 374 30 c 0
 384 27.3333333333 394 26.6666666667 408 26 c 1
 403 -8 l 1
 369 -3.63636363636 350 0 308 0 c 3
 278 0 242 -5.44444444444 212 -7 c 1
 210 26 l 1
 221 27 232.006266728 28.968917707 242 31 c 0
 265 35.6744186047 271.487831781 45.3456414408 274 72 c 0
 279 125.050505051 283 207.686868687 283 274 c 3
 283 534 281 594 279 626 c 0
 278 642 272 656 255 656 c 3
 249 656 224 650 214 649 c 1
 206 681 l 1
 258 692 317 720 360 754 c 1
 380 738 l 1
 374 724 367.459796002 696.948470013 366 686 c 0
 356 611 345 361 345 237 c 1
342.432617188 211 m 1
 375.111328125 243.142578125 423.201239815 289.429633376 453.927734375 328 c 0
 459.291015625 334.732421875 466.935546875 348 466.935546875 355 c 0
 466.935546875 373 451.1953125 372 444.63671875 374 c 1
 446.495117188 401 l 1
 467.907226562 399 496.731445312 399 518.966796875 399 c 0
 539.124023438 399 565.388671875 399 584.935546875 403 c 1
 586.79296875 373 l 1
 558.358398438 365.731445312 520.728363287 342.739412209 496.66796875 319 c 2
 413.510742188 236.952148438 l 1
 496.951171875 173.634765625 549.703125 9.2509765625 609 7.8994140625 c 1
 604.447265625 -18 l 1
 493.662109375 -45.3388671875 420.97265625 174.952148438 353.58203125 185 c 1
 344.291015625 177 l 1
 326 160 311.536267421 154.064479428 283.972682148 176.781777245 c 0
 280.732357303 179.45238137 277.599307891 182.260717864 274.41796875 185 c 1
 207.02734375 174.952148438 134.337890625 -45.3388671875 23.5537109375 -18 c 1
 19 7.8994140625 l 1
 78.296875 9.2509765625 131.048828125 173.634765625 214.489257812 236.952148438 c 1
 131.33203125 319 l 2
 107.271636713 342.739412209 69.6416015625 365.731445312 41.20703125 373 c 1
 43.0654296875 403 l 1
 62.6103515625 399 88.8759765625 399 109.033203125 399 c 0
 131.268554688 399 160.092773438 399 181.504882812 401 c 1
 183.36328125 374 l 1
 176.805664062 372 161.063476562 373 161.063476562 355 c 0
 161.063476562 348 168.708270803 334.731853461 174.071289062 328 c 0
 204.528148774 289.76945396 252.041811429 243.957466989 284.700190446 211.852711205 c 1
 304 193 328 198 342.432617188 211 c 1
EndSplineSet
EndChar
StartChar: afii10089.alt
Encoding: 58164 58164 1685
Width: 495
Flags: HW
AnchorPoint: "Horn" 417.5 333 basechar 0
AnchorPoint: "Bottom" 358 -15 basechar 0
LayerCount: 2
Fore
SplineSet
345 298 m 3
 345 337 313.208955224 337 274 338 c 1
 267 369 l 1
 320 379 375 392 416 403 c 1
 427 387 l 1
 416.181818182 344.896 410 256.408 410 233 c 3
 410 184.549652577 413 97.0971601506 416 74 c 1
 419 44.6976744186 432.934568144 33.0261727424 443 29 c 0
 453 25 464 25 475 24 c 1
 473 -5 l 1
 443 -1.88888888889 413 2 383 2 c 3
 341 2 269 -1 230 -2 c 1
 229 29 l 1
 243 30 261.002119235 29.966650571 277 31 c 0
 311.403508772 33.2222222222 320.701754386 37.6666666667 330 51 c 1
 337.597402597 56.0423728814 339.336363636 118.640261849 343 170 c 1
 288.74556213 136.52 212.99408284 116 170 116 c 3
 107.245614035 116 77.207432042 164.085752321 72 230 c 0
 71 241.485714286 70 267.647619048 70 297 c 3
 70 301.881656805 69 306.940828402 69 312 c 0
 69 322 65 331 55 331 c 3
 45 331 24 319 18 317 c 1
 8 348 l 1
 47.802919708 359 100.226277372 394 141 422 c 1
 159 406 l 1
 143.285714286 370.23580786 137 328.340611354 137 289 c 3
 137 274.5625 140.938806387 253.210930397 142 247 c 0
 149.325581395 198 167.232558139 165 212 165 c 3
 261.889763779 165 309.700787402 180.75 344 201 c 1
 345 228.18939394 345 263.462121211 345 298 c 3
EndSplineSet
EndChar
StartChar: zero.pcap
Encoding: 58518 58518 1728
Width: 540
Flags: HW
LayerCount: 2
Back
SplineSet
233 340 m 1
 179 340 196 277 196 236 c 1
 196 138 200 49 302 49 c 1
 363 49 332 143 332 172 c 1
 332 266 340 340 233 340 c 1
273 388 m 1
 379 388 466 300 466 194 c 1
 466 91 385 7 274 7 c 1
 163 7 74 91 74 194 c 1
 74 298 166 388 273 388 c 1
EndSplineSet
Fore
SplineSet
248 340 m 3
 204.228897399 340 196 277 196 236 c 3
 196 138 227.408285874 49 294 49 c 3
 338.828562324 49 342 143 342 172 c 3
 342 266 311.414141414 340 248 340 c 3
273 388 m 1
 379 388 466 300 466 194 c 1
 466 91 385 7 274 7 c 1
 163 7 74 91 74 194 c 1
 74 298 166 388 273 388 c 1
EndSplineSet
EndChar
StartChar: three.pcap
Encoding: 58521 58521 1731
Width: 445
Flags: HW
LayerCount: 2
Back
SplineSet
105 18 m 1
 241.431640624 55 247 78.9404296875 247 99 c 1
 247 149.901826484 222.880094598 168.530864198 180 187 c 1
 175.703679865 187 139.4453125 182.5 122 183 c 1
 112 213 l 1
 137 220 233 240.924982546 233 309 c 1
 233 335.140957447 205.419075521 341 195 341 c 1
 135.760254609 341 146.92578125 333.599609376 112 333 c 1
 98 351 l 1
 110.017578125 383.162109375 191.737304688 421 235 421 c 1
 292.927734375 421 343 385.818359375 343 335 c 1
 343 281.418945312 268.088867188 241.232421875 265 239 c 1
 305.49609375 229.1328125 363 196.7890625 363 148 c 1
 363 49.9501953125 216.134765625 -7 116 -11 c 1
 105 18 l 1
EndSplineSet
Fore
SplineSet
105 18 m 1
 224 49 246 73.4639395255 246 109 c 1
 246 148.11752802 222.240093186 170.62962963 180 187 c 1
 175.703679865 187 139.4453125 182.5 122 183 c 1
 112 213 l 1
 137 220 233 240.924982546 233 309 c 1
 233 340.042386968 201.79000651 347 190 347 c 3
 160.333199662 347 129.785673946 339.299316408 112 333 c 1
 98 351 l 1
 110.017578125 383.162109375 191.737304688 421 235 421 c 1
 292.927734375 421 343 385.818359375 343 335 c 1
 343 281.418945312 268.088867188 241.232421875 265 239 c 1
 305.49609375 229.1328125 363 196.7890625 363 148 c 1
 363 49.9501953125 216.134765625 -7 116 -11 c 1
 105 18 l 1
EndSplineSet
EndChar
StartChar: uniF591
Encoding: 62865 62865 1620
Width: 666
Flags: HW
LayerCount: 2
Fore
SplineSet
355 112 m 1
 355.59375 -83.3989997633 356.1875 -131.699499882 374 -180 c 1
 374 -200 l 1
 288 -200 l 1
 288 -180 l 1
 307.799804688 -128.015151515 307.799804688 -101.46969697 310 112 c 1
 355 112 l 1
571 158 m 1
 537.283843183 221.424329639 404.471782775 389.209545064 317 503 c 1
 204.314426955 360.771959496 126.498656921 252.429481688 63 158 c 1
 571 158 l 1
315 573 m 1
 355 573 l 1
 460.208822787 427.5467955 605 232 666 154 c 1
 652 106 l 1
 17 106 l 1
 0 150 l 1
 85.3302541193 254.267059292 209.190083949 424.885041767 315 573 c 1
162 21 m 1
 182 21 l 1
 196.416912499 7.7395453574 268.624327267 1 332.87890625 1 c 3
 393.133953087 1 454.360476934 7.5961022541 481 21 c 1
 502 21 l 1
 502 -60 l 1
 481 -60.123046875 l 1
 454.201260711 -44.5314045433 392.526996602 -36.97265625 332.443359375 -36.97265625 c 3
 265.151483133 -36.97265625 199.726092129 -44.7824196171 181 -59.888671875 c 1
 162 -60 l 1
 162 21 l 1
EndSplineSet
EndChar
StartChar: uniFB00
Encoding: 64256 64256 1158
Width: 650
Flags: HW
LayerCount: 2
Back
SplineSet
691 755 m 0
 711.702148438 755 748.342773438 747.599609375 782 718 c 1
 780 678 759 667.16796875 683 615 c 1
 657.4375 630.099609375 635.526367188 669 591 669 c 0
 524.014648438 669 519.265217919 612.753349294 515.139648438 539 c 0
 512.620117188 493.958007812 513.564453125 446.0625 511 393 c 1
 563.758789062 397 597.241210938 397 650 401 c 1
 650 333 l 1
 596.905273438 337 562.094726562 339 509 343 c 1
 509 317.477539062 509 294.75390625 509 286 c 0
 509 208.803710938 512.575123566 105.814442839 519 61 c 0
 521.868164062 40.994140625 533.069482075 31.0669126145 554 29 c 0
 574.252929688 27 578.571289062 27 599 27 c 1
 597 -7 l 1
 544.5 -2 483.5 0 431 0 c 0
 398.453125 0 354.546875 -3 322 -7 c 1
 321 26 l 1
 330.166992188 26 340.244164159 27.4187852214 351 29 c 0
 380.965820312 33.4052734375 379.537711538 50.5600396095 383 89 c 0
 387.345703125 137.248046875 389 199.26953125 389 259 c 0
 389 276.745117188 389 309.936523438 389 343 c 1
 368.779411765 343 354.220588235 343 334 343 c 0
 284.294298537 343 251.705701463 343 202 343 c 1
 202 317.477539062 202 294.75390625 202 286 c 0
 202 208.803710938 205.575123566 105.814442839 212 61 c 0
 214.868164062 40.994140625 226.069482075 31.0669126145 247 29 c 0
 264.552539063 27 268.295117187 27 286 27 c 1
 284 -7 l 1
 233.397590361 -2 174.602409639 0 124 0 c 0
 91.453125 0 47.546875 -3 15 -7 c 1
 14 26 l 1
 23.1669921875 26 33.2441641588 27.4187852214 44 29 c 0
 73.9658203125 33.4052734375 72.5377115383 50.5600396095 76 89 c 0
 80.345703125 137.248046875 82 199.26953125 82 259 c 0
 82 276.745117188 82 309.936523438 82 343 c 1
 57 341 39 335 14 333 c 1
 14 401 l 1
 39 399 57 395 82 393 c 1
 82 421.114346591 82 442.349431818 82 451 c 0
 82 556.952148438 154.36210258 628.416387172 240 675 c 0
 293.470703125 704.0859375 321.06640625 725 384 725 c 0
 411.431479714 725 456.671150086 714.760853426 501.892090549 677.017201255 c 1
 516.249915116 687.208586273 531.404827728 696.516846058 547 705 c 0
 600.470703125 734.0859375 628.06640625 755 691 755 c 0
406.669677277 566.685349047 m 1
 374.468050856 595.925865998 341.124853716 639 284 639 c 0
 217.014648438 639 213.327451543 582.686250784 208.139648438 509 c 0
 205.620117188 473.213211687 206.564453125 435.159246575 204 393 c 1
 253.342752361 393 284.657247639 393 334 393 c 0
 354.220588235 393 368.779411765 393 389 393 c 1
 389 435.65625 389 467.875 389 481 c 0
 389 512.531929979 395.409036565 541.009301474 406.669677277 566.685349047 c 1
EndSplineSet
Fore
SplineSet
501.892090549 677.017201255 m 1
 516.249915116 687.208586273 531.404827728 696.516846058 547 705 c 0
 600.470703125 734.0859375 628.06640625 755 691 755 c 0
 711.702148438 755 748.342773438 747.599609375 782 718 c 1
 780 678 759 667.16796875 683 615 c 1
 657.4375 630.099609375 635.526367188 669 591 669 c 0
 524.014648438 669 519.265217919 612.753349294 515.139648438 539 c 0
 512.620117188 493.958007812 513.564453125 446.0625 511 393 c 1
 563.758789062 397 597.241210938 397 650 401 c 1
 650 333 l 1
 596.905273438 337 562.094726562 339 509 343 c 1
 509 317.477539062 509 294.75390625 509 286 c 0
 509 208.803710938 512.575123566 105.814442839 519 61 c 0
 521.868164062 40.994140625 533.069482075 31.0669126145 554 29 c 0
 574.252929688 27 578.571289062 27 599 27 c 1
 597 -7 l 1
 544.5 -2 483.5 0 431 0 c 0
 398.453125 0 354.546875 -3 322 -7 c 1
 321 26 l 1
 330.166992188 26 340.244164159 27.4187852214 351 29 c 0
 380.965820312 33.4052734375 379.537711538 50.5600396095 383 89 c 0
 387.345703125 137.248046875 389 199.26953125 389 259 c 0
 389 276.745117188 389 309.936523438 389 343 c 1
 368.779411765 343 354.220588235 343 334 343 c 0
 284.294298537 343 251.705701463 343 202 343 c 1
 202 317.477539062 202 294.75390625 202 286 c 0
 202 208.803710938 205.575123566 105.814442839 212 61 c 0
 214.868164062 40.994140625 226.069482075 31.0669126145 247 29 c 0
 264.552539063 27 268.295117187 27 286 27 c 1
 284 -7 l 1
 233.397590361 -2 174.602409639 0 124 0 c 0
 91.453125 0 47.546875 -3 15 -7 c 1
 14 26 l 1
 23.1669921875 26 33.2441641588 27.4187852214 44 29 c 0
 73.9658203125 33.4052734375 72.5377115383 50.5600396095 76 89 c 0
 80.345703125 137.248046875 82 199.26953125 82 259 c 0
 82 276.745117188 82 309.936523438 82 343 c 1
 57 341 39 335 14 333 c 1
 14 401 l 1
 39 399 57 395 82 393 c 1
 82 421.114346591 82 442.349431818 82 451 c 0
 82 556.952148438 154.36210258 628.416387172 240 675 c 0
 293.470703125 704.0859375 321.06640625 725 384 725 c 0
 411.431479714 725 456.671150086 714.760853426 501.892090549 677.017201255 c 1
389 393 m 1
 389 435.65625 389 467.875 389 481 c 0
 389 512.531929979 395.409036565 541.009301474 406.669677277 566.685349047 c 1
 374.468050856 595.925865998 341.124853716 639 284 639 c 0
 217.014648438 639 213.327451543 582.686250784 208.139648438 509 c 0
 205.620117188 473.213211687 206.564453125 435.159246575 204 393 c 1
 253.342752361 393 284.657247639 393 334 393 c 0
 354.220588235 393 368.779411765 393 389 393 c 1
EndSplineSet
Substitution2: "salt-1" uniFB00.alt
LCarets2: 1 318
Ligature2: "liga-1" f f
EndChar
StartChar: uniFB24
Encoding: 64292 64292 1167
Width: 812
Flags: HW
AnchorPoint: "Top" 201.84 619.44 basechar 0
LayerCount: 2
Fore
SplineSet
56.83984375 103.240234375 m 1
 108.065429688 120.76171875 148.78125 128.934570312 234.3203125 133.01953125 c 0
 293.242825701 133.27636717 377.747750121 133.319751132 514 133.378040537 c 0
 606.389319121 133.417565158 711.080078125 132.224313923 711.080078125 221.559570312 c 3
 711.080078125 359.110330302 580 420 512 423.889648438 c 0
 416.121681191 429.373956569 262.380246758 430.640554224 157.759765625 431.51953125 c 1
 131.908203125 437.3203125 107.051757812 452.400390625 81.2001953125 466.3203125 c 1
 114.83984375 596.240234375 l 1
 146.16015625 600.879882812 l 1
 160.080078125 576.51953125 l 1
 185.055921625 566.507124563 408.074750326 568.068049355 546 558.645507812 c 0
 614 554 773.719726562 425.929882883 773.719726562 256.360351562 c 3
 773.719726562 132.768698215 630.982580219 -2.59407718252 480 -2.17462522296 c 2
 114.83984375 -1.16015625 l 1
 62.6396484375 -25.51953125 l 1
 38.2802734375 -17.400390625 l 1
 56.83984375 103.240234375 l 1
EndSplineSet
EndChar
StartChar: NameMe.question
Encoding: 65539 -1 1300
Width: 333
Flags: HW
LayerCount: 2
Fore
SplineSet
51 389 m 1
 53 402 54 413 54 423 c 3
 54 466 39 483 39 491 c 3
 39 496 45 499 65 502 c 1
 86 470 93 470 123 470 c 3
 198 470 273 418 273 340 c 3
 273 220 195 214 185 210 c 0
 158 200 144 184 141 155 c 9
 141 155 128 154 123 154 c 1
 115 217 109 267 145 283 c 0
 164 290 246 274 246 331 c 3
 246 373 168 396 51 389 c 1
EndSplineSet
Refer: 405 46 N 0.929057 0 0 0.987278 39 -2 2
EndChar
